<mxfile host="Electron" modified="2023-10-24T08:37:36.594Z" agent="Mozilla/5.0 (Windows NT 10.0; Win64; x64) AppleWebKit/537.36 (KHTML, like Gecko) draw.io/22.0.2 Chrome/114.0.5735.289 Electron/25.8.4 Safari/537.36" etag="7h3bVcOrzpT4eDScs24O" version="22.0.2" type="device">
  <diagram name="Página-1" id="9pl-J5FTXQIVaU8alMAR">
    <mxGraphModel dx="996" dy="1996" grid="1" gridSize="10" guides="1" tooltips="1" connect="1" arrows="1" fold="1" page="1" pageScale="1" pageWidth="827" pageHeight="1169" math="0" shadow="0">
      <root>
        <mxCell id="0" />
        <mxCell id="1" parent="0" />
        <mxCell id="3PM7LBWE8S_9KVwZRtls-3" value="" style="edgeStyle=orthogonalEdgeStyle;rounded=0;orthogonalLoop=1;jettySize=auto;html=1;" edge="1" parent="1" source="3PM7LBWE8S_9KVwZRtls-1" target="3PM7LBWE8S_9KVwZRtls-2">
          <mxGeometry relative="1" as="geometry" />
        </mxCell>
        <mxCell id="3PM7LBWE8S_9KVwZRtls-1" value="EMPRESA" style="rounded=0;whiteSpace=wrap;html=1;" vertex="1" parent="1">
          <mxGeometry x="80" y="30" width="120" height="60" as="geometry" />
        </mxCell>
        <mxCell id="3PM7LBWE8S_9KVwZRtls-5" value="" style="edgeStyle=orthogonalEdgeStyle;rounded=0;orthogonalLoop=1;jettySize=auto;html=1;" edge="1" parent="1" source="3PM7LBWE8S_9KVwZRtls-2" target="3PM7LBWE8S_9KVwZRtls-4">
          <mxGeometry relative="1" as="geometry" />
        </mxCell>
        <mxCell id="3PM7LBWE8S_9KVwZRtls-2" value="organiza" style="rhombus;whiteSpace=wrap;html=1;rounded=0;" vertex="1" parent="1">
          <mxGeometry x="80" y="130" width="100" height="40" as="geometry" />
        </mxCell>
        <mxCell id="3PM7LBWE8S_9KVwZRtls-11" style="edgeStyle=orthogonalEdgeStyle;rounded=0;orthogonalLoop=1;jettySize=auto;html=1;exitX=0;exitY=0.5;exitDx=0;exitDy=0;entryX=0;entryY=0.5;entryDx=0;entryDy=0;" edge="1" parent="1" source="3PM7LBWE8S_9KVwZRtls-4" target="3PM7LBWE8S_9KVwZRtls-6">
          <mxGeometry relative="1" as="geometry" />
        </mxCell>
        <mxCell id="3PM7LBWE8S_9KVwZRtls-12" style="edgeStyle=orthogonalEdgeStyle;rounded=0;orthogonalLoop=1;jettySize=auto;html=1;exitX=0;exitY=0.5;exitDx=0;exitDy=0;entryX=0;entryY=0.5;entryDx=0;entryDy=0;" edge="1" parent="1" source="3PM7LBWE8S_9KVwZRtls-4" target="3PM7LBWE8S_9KVwZRtls-7">
          <mxGeometry relative="1" as="geometry" />
        </mxCell>
        <mxCell id="3PM7LBWE8S_9KVwZRtls-13" style="edgeStyle=orthogonalEdgeStyle;rounded=0;orthogonalLoop=1;jettySize=auto;html=1;exitX=0;exitY=0.5;exitDx=0;exitDy=0;entryX=0;entryY=0.5;entryDx=0;entryDy=0;" edge="1" parent="1" source="3PM7LBWE8S_9KVwZRtls-4" target="3PM7LBWE8S_9KVwZRtls-8">
          <mxGeometry relative="1" as="geometry" />
        </mxCell>
        <mxCell id="3PM7LBWE8S_9KVwZRtls-14" style="edgeStyle=orthogonalEdgeStyle;rounded=0;orthogonalLoop=1;jettySize=auto;html=1;exitX=0;exitY=0.5;exitDx=0;exitDy=0;entryX=0;entryY=0.5;entryDx=0;entryDy=0;" edge="1" parent="1" source="3PM7LBWE8S_9KVwZRtls-4" target="3PM7LBWE8S_9KVwZRtls-9">
          <mxGeometry relative="1" as="geometry" />
        </mxCell>
        <mxCell id="3PM7LBWE8S_9KVwZRtls-15" style="edgeStyle=orthogonalEdgeStyle;rounded=0;orthogonalLoop=1;jettySize=auto;html=1;exitX=0;exitY=0.5;exitDx=0;exitDy=0;entryX=0;entryY=0.5;entryDx=0;entryDy=0;" edge="1" parent="1" source="3PM7LBWE8S_9KVwZRtls-4" target="3PM7LBWE8S_9KVwZRtls-10">
          <mxGeometry relative="1" as="geometry" />
        </mxCell>
        <mxCell id="3PM7LBWE8S_9KVwZRtls-4" value="CURSOS" style="whiteSpace=wrap;html=1;rounded=0;" vertex="1" parent="1">
          <mxGeometry x="70" y="220" width="120" height="60" as="geometry" />
        </mxCell>
        <mxCell id="3PM7LBWE8S_9KVwZRtls-6" value="Coste" style="ellipse;whiteSpace=wrap;html=1;" vertex="1" parent="1">
          <mxGeometry x="70" y="550" width="120" height="40" as="geometry" />
        </mxCell>
        <mxCell id="3PM7LBWE8S_9KVwZRtls-7" value="Nº Horas" style="ellipse;whiteSpace=wrap;html=1;" vertex="1" parent="1">
          <mxGeometry x="70" y="480" width="120" height="50" as="geometry" />
        </mxCell>
        <mxCell id="3PM7LBWE8S_9KVwZRtls-8" value="Descripción" style="ellipse;whiteSpace=wrap;html=1;" vertex="1" parent="1">
          <mxGeometry x="70" y="438" width="120" height="40" as="geometry" />
        </mxCell>
        <mxCell id="3PM7LBWE8S_9KVwZRtls-9" value="Nombre" style="ellipse;whiteSpace=wrap;html=1;" vertex="1" parent="1">
          <mxGeometry x="70" y="390" width="120" height="40" as="geometry" />
        </mxCell>
        <mxCell id="3PM7LBWE8S_9KVwZRtls-10" value="&lt;u&gt;Cod. curso&lt;/u&gt;" style="ellipse;whiteSpace=wrap;html=1;" vertex="1" parent="1">
          <mxGeometry x="70" y="340" width="120" height="40" as="geometry" />
        </mxCell>
        <mxCell id="3PM7LBWE8S_9KVwZRtls-51" style="edgeStyle=orthogonalEdgeStyle;rounded=0;orthogonalLoop=1;jettySize=auto;html=1;exitX=1;exitY=0.75;exitDx=0;exitDy=0;entryX=1;entryY=0.5;entryDx=0;entryDy=0;" edge="1" parent="1" source="3PM7LBWE8S_9KVwZRtls-16" target="3PM7LBWE8S_9KVwZRtls-43">
          <mxGeometry relative="1" as="geometry" />
        </mxCell>
        <mxCell id="3PM7LBWE8S_9KVwZRtls-52" style="edgeStyle=orthogonalEdgeStyle;rounded=0;orthogonalLoop=1;jettySize=auto;html=1;exitX=1;exitY=1;exitDx=0;exitDy=0;entryX=1;entryY=0.5;entryDx=0;entryDy=0;" edge="1" parent="1" source="3PM7LBWE8S_9KVwZRtls-16" target="3PM7LBWE8S_9KVwZRtls-44">
          <mxGeometry relative="1" as="geometry" />
        </mxCell>
        <mxCell id="3PM7LBWE8S_9KVwZRtls-53" style="edgeStyle=orthogonalEdgeStyle;rounded=0;orthogonalLoop=1;jettySize=auto;html=1;exitX=0.75;exitY=1;exitDx=0;exitDy=0;entryX=1;entryY=0;entryDx=0;entryDy=0;" edge="1" parent="1" source="3PM7LBWE8S_9KVwZRtls-16" target="3PM7LBWE8S_9KVwZRtls-45">
          <mxGeometry relative="1" as="geometry" />
        </mxCell>
        <mxCell id="3PM7LBWE8S_9KVwZRtls-16" value="EDICIONES" style="whiteSpace=wrap;html=1;rounded=0;" vertex="1" parent="1">
          <mxGeometry x="630" y="363" width="120" height="60" as="geometry" />
        </mxCell>
        <mxCell id="3PM7LBWE8S_9KVwZRtls-39" style="edgeStyle=orthogonalEdgeStyle;rounded=0;orthogonalLoop=1;jettySize=auto;html=1;exitX=1;exitY=0.5;exitDx=0;exitDy=0;entryX=0;entryY=0.5;entryDx=0;entryDy=0;" edge="1" parent="1" source="3PM7LBWE8S_9KVwZRtls-18" target="3PM7LBWE8S_9KVwZRtls-22">
          <mxGeometry relative="1" as="geometry" />
        </mxCell>
        <mxCell id="3PM7LBWE8S_9KVwZRtls-40" style="edgeStyle=orthogonalEdgeStyle;rounded=0;orthogonalLoop=1;jettySize=auto;html=1;exitX=1;exitY=0.5;exitDx=0;exitDy=0;entryX=0;entryY=0.5;entryDx=0;entryDy=0;" edge="1" parent="1" source="3PM7LBWE8S_9KVwZRtls-18" target="3PM7LBWE8S_9KVwZRtls-27">
          <mxGeometry relative="1" as="geometry" />
        </mxCell>
        <mxCell id="3PM7LBWE8S_9KVwZRtls-18" value="EMPLEADO" style="whiteSpace=wrap;html=1;rounded=0;" vertex="1" parent="1">
          <mxGeometry x="349" y="100" width="120" height="60" as="geometry" />
        </mxCell>
        <mxCell id="3PM7LBWE8S_9KVwZRtls-21" value="Nombre" style="ellipse;whiteSpace=wrap;html=1;align=center;" vertex="1" parent="1">
          <mxGeometry x="540" y="-45" width="100" height="35" as="geometry" />
        </mxCell>
        <mxCell id="3PM7LBWE8S_9KVwZRtls-22" value="&lt;u&gt;Cod.Emple&lt;/u&gt;" style="ellipse;whiteSpace=wrap;html=1;align=center;" vertex="1" parent="1">
          <mxGeometry x="540" y="-80" width="100" height="35" as="geometry" />
        </mxCell>
        <mxCell id="3PM7LBWE8S_9KVwZRtls-23" value="Dirección&lt;span style=&quot;white-space: pre;&quot;&gt;&#x9;&lt;/span&gt;" style="ellipse;whiteSpace=wrap;html=1;align=center;" vertex="1" parent="1">
          <mxGeometry x="540" y="-10" width="100" height="30" as="geometry" />
        </mxCell>
        <mxCell id="3PM7LBWE8S_9KVwZRtls-27" value="Salario" style="ellipse;whiteSpace=wrap;html=1;align=center;" vertex="1" parent="1">
          <mxGeometry x="540" y="260" width="100" height="40" as="geometry" />
        </mxCell>
        <mxCell id="3PM7LBWE8S_9KVwZRtls-28" value="Firma" style="ellipse;whiteSpace=wrap;html=1;align=center;" vertex="1" parent="1">
          <mxGeometry x="540" y="220" width="100" height="40" as="geometry" />
        </mxCell>
        <mxCell id="3PM7LBWE8S_9KVwZRtls-29" value="Sexo" style="ellipse;whiteSpace=wrap;html=1;align=center;" vertex="1" parent="1">
          <mxGeometry x="540" y="180" width="100" height="40" as="geometry" />
        </mxCell>
        <mxCell id="3PM7LBWE8S_9KVwZRtls-30" value="Nacionalidad" style="ellipse;whiteSpace=wrap;html=1;align=center;" vertex="1" parent="1">
          <mxGeometry x="540" y="140" width="100" height="40" as="geometry" />
        </mxCell>
        <mxCell id="3PM7LBWE8S_9KVwZRtls-31" value="Nacimiento" style="ellipse;whiteSpace=wrap;html=1;align=center;" vertex="1" parent="1">
          <mxGeometry x="540" y="100" width="100" height="40" as="geometry" />
        </mxCell>
        <mxCell id="3PM7LBWE8S_9KVwZRtls-32" value="NIF" style="ellipse;whiteSpace=wrap;html=1;align=center;" vertex="1" parent="1">
          <mxGeometry x="540" y="60" width="100" height="40" as="geometry" />
        </mxCell>
        <mxCell id="3PM7LBWE8S_9KVwZRtls-33" value="Telefono" style="ellipse;whiteSpace=wrap;html=1;align=center;" vertex="1" parent="1">
          <mxGeometry x="540" y="20" width="100" height="40" as="geometry" />
        </mxCell>
        <mxCell id="3PM7LBWE8S_9KVwZRtls-42" value="" style="edgeStyle=orthogonalEdgeStyle;rounded=0;orthogonalLoop=1;jettySize=auto;html=1;" edge="1" parent="1" source="3PM7LBWE8S_9KVwZRtls-4" target="3PM7LBWE8S_9KVwZRtls-41">
          <mxGeometry relative="1" as="geometry">
            <mxPoint x="190" y="250" as="sourcePoint" />
            <mxPoint x="354" y="340" as="targetPoint" />
          </mxGeometry>
        </mxCell>
        <mxCell id="3PM7LBWE8S_9KVwZRtls-106" style="edgeStyle=orthogonalEdgeStyle;rounded=0;orthogonalLoop=1;jettySize=auto;html=1;exitX=0.5;exitY=1;exitDx=0;exitDy=0;entryX=0;entryY=0;entryDx=0;entryDy=0;" edge="1" parent="1" source="3PM7LBWE8S_9KVwZRtls-41" target="3PM7LBWE8S_9KVwZRtls-71">
          <mxGeometry relative="1" as="geometry" />
        </mxCell>
        <mxCell id="3PM7LBWE8S_9KVwZRtls-41" value="tiene" style="shape=rhombus;perimeter=rhombusPerimeter;whiteSpace=wrap;html=1;align=center;" vertex="1" parent="1">
          <mxGeometry x="304" y="250" width="110" height="50" as="geometry" />
        </mxCell>
        <mxCell id="3PM7LBWE8S_9KVwZRtls-43" value="Horarios" style="ellipse;whiteSpace=wrap;html=1;align=center;" vertex="1" parent="1">
          <mxGeometry x="640" y="610" width="100" height="40" as="geometry" />
        </mxCell>
        <mxCell id="3PM7LBWE8S_9KVwZRtls-44" value="&lt;u&gt;Fechas&lt;/u&gt;" style="ellipse;whiteSpace=wrap;html=1;align=center;" vertex="1" parent="1">
          <mxGeometry x="629.5" y="565" width="100" height="40" as="geometry" />
        </mxCell>
        <mxCell id="3PM7LBWE8S_9KVwZRtls-45" value="Lugares" style="ellipse;whiteSpace=wrap;html=1;align=center;" vertex="1" parent="1">
          <mxGeometry x="640" y="520" width="100" height="40" as="geometry" />
        </mxCell>
        <mxCell id="3PM7LBWE8S_9KVwZRtls-76" value="" style="edgeStyle=orthogonalEdgeStyle;rounded=0;orthogonalLoop=1;jettySize=auto;html=1;" edge="1" parent="1" source="3PM7LBWE8S_9KVwZRtls-58" target="3PM7LBWE8S_9KVwZRtls-75">
          <mxGeometry relative="1" as="geometry" />
        </mxCell>
        <mxCell id="3PM7LBWE8S_9KVwZRtls-58" value="es prerequisito" style="shape=rhombus;perimeter=rhombusPerimeter;whiteSpace=wrap;html=1;align=center;" vertex="1" parent="1">
          <mxGeometry x="249" y="318" width="120" height="60" as="geometry" />
        </mxCell>
        <mxCell id="3PM7LBWE8S_9KVwZRtls-62" value="ALUMNO" style="whiteSpace=wrap;html=1;rounded=0;" vertex="1" parent="1">
          <mxGeometry x="230" y="-92.5" width="120" height="60" as="geometry" />
        </mxCell>
        <mxCell id="3PM7LBWE8S_9KVwZRtls-68" value="(1,1)" style="text;html=1;align=center;verticalAlign=middle;resizable=0;points=[];autosize=1;strokeColor=none;fillColor=none;" vertex="1" parent="1">
          <mxGeometry x="80" y="90" width="50" height="30" as="geometry" />
        </mxCell>
        <mxCell id="3PM7LBWE8S_9KVwZRtls-69" value="1:N" style="text;html=1;align=center;verticalAlign=middle;resizable=0;points=[];autosize=1;strokeColor=none;fillColor=none;" vertex="1" parent="1">
          <mxGeometry x="40" y="138" width="40" height="30" as="geometry" />
        </mxCell>
        <mxCell id="3PM7LBWE8S_9KVwZRtls-70" value="(1,n)&lt;br&gt;" style="text;html=1;align=center;verticalAlign=middle;resizable=0;points=[];autosize=1;strokeColor=none;fillColor=none;" vertex="1" parent="1">
          <mxGeometry x="85" y="188" width="50" height="30" as="geometry" />
        </mxCell>
        <mxCell id="3PM7LBWE8S_9KVwZRtls-71" value="EDICIONES" style="shape=ext;margin=3;double=1;whiteSpace=wrap;html=1;align=center;" vertex="1" parent="1">
          <mxGeometry x="629.5" y="363" width="121" height="60" as="geometry" />
        </mxCell>
        <mxCell id="3PM7LBWE8S_9KVwZRtls-72" value="(1,n)" style="text;html=1;align=center;verticalAlign=middle;resizable=0;points=[];autosize=1;strokeColor=none;fillColor=none;" vertex="1" parent="1">
          <mxGeometry x="570" y="378" width="50" height="30" as="geometry" />
        </mxCell>
        <mxCell id="3PM7LBWE8S_9KVwZRtls-73" value="(1,1)" style="text;html=1;align=center;verticalAlign=middle;resizable=0;points=[];autosize=1;strokeColor=none;fillColor=none;" vertex="1" parent="1">
          <mxGeometry x="184" y="250" width="50" height="30" as="geometry" />
        </mxCell>
        <mxCell id="3PM7LBWE8S_9KVwZRtls-74" style="edgeStyle=orthogonalEdgeStyle;rounded=0;orthogonalLoop=1;jettySize=auto;html=1;exitX=0.75;exitY=1;exitDx=0;exitDy=0;entryX=0.2;entryY=0.35;entryDx=0;entryDy=0;entryPerimeter=0;" edge="1" parent="1" source="3PM7LBWE8S_9KVwZRtls-4" target="3PM7LBWE8S_9KVwZRtls-58">
          <mxGeometry relative="1" as="geometry" />
        </mxCell>
        <mxCell id="3PM7LBWE8S_9KVwZRtls-75" value="obliga/recomienda" style="ellipse;whiteSpace=wrap;html=1;" vertex="1" parent="1">
          <mxGeometry x="260" y="408" width="120" height="30" as="geometry" />
        </mxCell>
        <mxCell id="3PM7LBWE8S_9KVwZRtls-77" value="(0,n)" style="text;html=1;align=center;verticalAlign=middle;resizable=0;points=[];autosize=1;strokeColor=none;fillColor=none;" vertex="1" parent="1">
          <mxGeometry x="115" y="280" width="50" height="30" as="geometry" />
        </mxCell>
        <mxCell id="3PM7LBWE8S_9KVwZRtls-80" value="N:M" style="text;html=1;align=center;verticalAlign=middle;resizable=0;points=[];autosize=1;strokeColor=none;fillColor=none;" vertex="1" parent="1">
          <mxGeometry x="220" y="320" width="50" height="30" as="geometry" />
        </mxCell>
        <mxCell id="3PM7LBWE8S_9KVwZRtls-85" style="edgeStyle=orthogonalEdgeStyle;rounded=0;orthogonalLoop=1;jettySize=auto;html=1;exitX=0.5;exitY=1;exitDx=0;exitDy=0;" edge="1" parent="1" source="3PM7LBWE8S_9KVwZRtls-82">
          <mxGeometry relative="1" as="geometry">
            <mxPoint x="290" y="-30" as="targetPoint" />
          </mxGeometry>
        </mxCell>
        <mxCell id="3PM7LBWE8S_9KVwZRtls-93" style="edgeStyle=orthogonalEdgeStyle;rounded=0;orthogonalLoop=1;jettySize=auto;html=1;exitX=1;exitY=0.5;exitDx=0;exitDy=0;entryX=0.5;entryY=0;entryDx=0;entryDy=0;" edge="1" parent="1" source="3PM7LBWE8S_9KVwZRtls-82" target="3PM7LBWE8S_9KVwZRtls-18">
          <mxGeometry relative="1" as="geometry" />
        </mxCell>
        <mxCell id="3PM7LBWE8S_9KVwZRtls-94" style="edgeStyle=orthogonalEdgeStyle;rounded=0;orthogonalLoop=1;jettySize=auto;html=1;exitX=0;exitY=0.5;exitDx=0;exitDy=0;" edge="1" parent="1" source="3PM7LBWE8S_9KVwZRtls-82">
          <mxGeometry relative="1" as="geometry">
            <mxPoint x="409" y="-30" as="targetPoint" />
          </mxGeometry>
        </mxCell>
        <mxCell id="3PM7LBWE8S_9KVwZRtls-82" value="Is a" style="triangle;whiteSpace=wrap;html=1;direction=south;" vertex="1" parent="1">
          <mxGeometry x="369" y="30" width="80" height="60" as="geometry" />
        </mxCell>
        <mxCell id="3PM7LBWE8S_9KVwZRtls-83" value="DOCENTE" style="whiteSpace=wrap;html=1;" vertex="1" parent="1">
          <mxGeometry x="360" y="-70" width="120" height="60" as="geometry" />
        </mxCell>
        <mxCell id="3PM7LBWE8S_9KVwZRtls-89" value="" style="edgeStyle=orthogonalEdgeStyle;rounded=0;orthogonalLoop=1;jettySize=auto;html=1;exitX=0.75;exitY=0;exitDx=0;exitDy=0;" edge="1" parent="1" source="3PM7LBWE8S_9KVwZRtls-83" target="3PM7LBWE8S_9KVwZRtls-88">
          <mxGeometry relative="1" as="geometry">
            <mxPoint x="700" y="362" as="targetPoint" />
            <mxPoint x="455" y="-130" as="sourcePoint" />
          </mxGeometry>
        </mxCell>
        <mxCell id="3PM7LBWE8S_9KVwZRtls-96" style="edgeStyle=orthogonalEdgeStyle;rounded=0;orthogonalLoop=1;jettySize=auto;html=1;exitX=0.5;exitY=1;exitDx=0;exitDy=0;" edge="1" parent="1" source="3PM7LBWE8S_9KVwZRtls-88">
          <mxGeometry relative="1" as="geometry">
            <mxPoint x="690" y="360" as="targetPoint" />
          </mxGeometry>
        </mxCell>
        <mxCell id="3PM7LBWE8S_9KVwZRtls-88" value="IMPARTE" style="rhombus;whiteSpace=wrap;html=1;" vertex="1" parent="1">
          <mxGeometry x="640" y="70" width="130" height="60" as="geometry" />
        </mxCell>
        <mxCell id="3PM7LBWE8S_9KVwZRtls-98" value="" style="edgeStyle=orthogonalEdgeStyle;rounded=0;orthogonalLoop=1;jettySize=auto;html=1;exitX=0.5;exitY=0;exitDx=0;exitDy=0;entryX=0.5;entryY=0;entryDx=0;entryDy=0;" edge="1" parent="1" source="3PM7LBWE8S_9KVwZRtls-62" target="3PM7LBWE8S_9KVwZRtls-97">
          <mxGeometry relative="1" as="geometry">
            <mxPoint x="290" y="-92" as="sourcePoint" />
            <mxPoint x="751" y="378" as="targetPoint" />
          </mxGeometry>
        </mxCell>
        <mxCell id="3PM7LBWE8S_9KVwZRtls-99" style="edgeStyle=orthogonalEdgeStyle;rounded=0;orthogonalLoop=1;jettySize=auto;html=1;exitX=0.5;exitY=1;exitDx=0;exitDy=0;entryX=1;entryY=0.25;entryDx=0;entryDy=0;" edge="1" parent="1" source="3PM7LBWE8S_9KVwZRtls-97" target="3PM7LBWE8S_9KVwZRtls-71">
          <mxGeometry relative="1" as="geometry" />
        </mxCell>
        <mxCell id="3PM7LBWE8S_9KVwZRtls-97" value="REALIZA" style="rhombus;whiteSpace=wrap;html=1;" vertex="1" parent="1">
          <mxGeometry x="740" y="-10" width="130" height="50" as="geometry" />
        </mxCell>
        <mxCell id="3PM7LBWE8S_9KVwZRtls-100" value="(1,N)" style="text;html=1;align=center;verticalAlign=middle;resizable=0;points=[];autosize=1;strokeColor=none;fillColor=none;" vertex="1" parent="1">
          <mxGeometry x="234" y="-122.5" width="50" height="30" as="geometry" />
        </mxCell>
        <mxCell id="3PM7LBWE8S_9KVwZRtls-101" value="N:M" style="text;html=1;align=center;verticalAlign=middle;resizable=0;points=[];autosize=1;strokeColor=none;fillColor=none;" vertex="1" parent="1">
          <mxGeometry x="825" y="-22" width="50" height="30" as="geometry" />
        </mxCell>
        <mxCell id="3PM7LBWE8S_9KVwZRtls-102" value="(1,n)" style="text;html=1;align=center;verticalAlign=middle;resizable=0;points=[];autosize=1;strokeColor=none;fillColor=none;" vertex="1" parent="1">
          <mxGeometry x="750" y="350" width="50" height="30" as="geometry" />
        </mxCell>
        <mxCell id="3PM7LBWE8S_9KVwZRtls-103" value="1:N" style="text;html=1;align=center;verticalAlign=middle;resizable=0;points=[];autosize=1;strokeColor=none;fillColor=none;" vertex="1" parent="1">
          <mxGeometry x="760" y="78" width="40" height="30" as="geometry" />
        </mxCell>
        <mxCell id="3PM7LBWE8S_9KVwZRtls-104" value="(1,1)" style="text;html=1;align=center;verticalAlign=middle;resizable=0;points=[];autosize=1;strokeColor=none;fillColor=none;" vertex="1" parent="1">
          <mxGeometry x="405" y="-92" width="50" height="30" as="geometry" />
        </mxCell>
        <mxCell id="3PM7LBWE8S_9KVwZRtls-105" value="(1,n)" style="text;html=1;align=center;verticalAlign=middle;resizable=0;points=[];autosize=1;strokeColor=none;fillColor=none;" vertex="1" parent="1">
          <mxGeometry x="645" y="328" width="50" height="30" as="geometry" />
        </mxCell>
      </root>
    </mxGraphModel>
  </diagram>
</mxfile>
